<?xml version="1.0" encoding="iso-8859-1"?>
<!-- Uploaded to: SVG Repo, www.svgrepo.com, Generator: SVG Repo Mixer Tools -->
<svg fill="#000000" version="1.1" id="Layer_1" xmlns="http://www.w3.org/2000/svg" xmlns:xlink="http://www.w3.org/1999/xlink" 
	 viewBox="0 0 496 496" xml:space="preserve">
<g>
	<g>
		<g>
			<path d="M456,96h-12.064C430.032,78.56,361.12,0,248,0S65.968,78.56,52.064,96H40c-22.056,0-40,17.944-40,40v256
				c0,22.056,17.944,40,40,40h112v48h-48v16h288v-16h-48v-48h112c22.056,0,40-17.944,40-40V136C496,113.944,478.056,96,456,96z
				 M248,16c100.84,0,165.864,69.12,181.752,88.008C413.904,122.912,349.064,192,248,192c-100.84,0-165.864-69.12-181.752-88.008
				C82.096,85.088,146.936,16,248,16z M353.024,294.928c10.576,15.184,17.6,32.168,20.864,50.48l1.168,6.592H408v16h-72
				c0-48.52-39.48-88-88-88s-88,39.48-88,88H88v-16h32.944l1.168-6.592c3.264-18.304,10.288-35.288,20.864-50.48l3.832-5.496
				l-23.264-23.256l22.632-22.632l23.256,23.264l5.496-3.832c15.184-10.576,32.168-17.6,50.48-20.864l6.592-1.168V208h32v32.944
				l6.592,1.168c18.304,3.264,35.288,10.288,50.48,20.864l5.496,3.832l23.256-23.264l22.632,22.632l-23.264,23.256L353.024,294.928z
				 M320,368H176c0-39.704,32.296-72,72-72S320,328.296,320,368z M16,136c0-13.232,10.768-24,24-24h12.064
				C64.6,127.728,121.896,193.136,216,205.832v21.864c-15.904,3.592-30.856,9.784-44.608,18.448l-25.208-25.216l-45.256,45.256
				l25.216,25.208c-8.664,13.752-14.848,28.704-18.448,44.608H72v32H16V136z M328,480H168v-48h160V480z M480,392
				c0,13.232-10.768,24-24,24H40c-13.232,0-24-10.768-24-24v-8h464V392z M480,368h-56v-32h-35.696
				c-3.592-15.904-9.784-30.856-18.448-44.608l25.216-25.208l-45.256-45.256l-25.208,25.216
				c-13.752-8.664-28.704-14.848-44.608-18.448v-21.864c94.104-12.696,151.4-78.104,163.936-93.832H456c13.232,0,24,10.768,24,24
				V368z"/>
			<rect x="240" y="336" width="16" height="16"/>
			<rect x="272" y="336" width="16" height="16"/>
			<rect x="208" y="336" width="16" height="16"/>
			<path d="M248,176c39.704,0,72-32.296,72-72s-32.296-72-72-72c-39.704,0-72,32.296-72,72S208.296,176,248,176z M248,48
				c30.872,0,56,25.128,56,56s-25.128,56-56,56s-56-25.128-56-56S217.128,48,248,48z"/>
			<path d="M248,136c17.648,0,32-14.352,32-32s-14.352-32-32-32s-32,14.352-32,32S230.352,136,248,136z M248,88
				c8.824,0,16,7.176,16,16s-7.176,16-16,16c-8.824,0-16-7.176-16-16S239.176,88,248,88z"/>
			<rect x="344" y="96" width="16" height="16"/>
			<rect x="328" y="56" width="16" height="16"/>
			<rect x="328" y="136" width="16" height="16"/>
			<rect x="136" y="96" width="16" height="16"/>
			<rect x="152" y="56" width="16" height="16"/>
			<rect x="152" y="136" width="16" height="16"/>
		</g>
	</g>
</g>
</svg>