<?xml version="1.0" encoding="iso-8859-1"?>
<!-- Uploaded to: SVG Repo, www.svgrepo.com, Generator: SVG Repo Mixer Tools -->
<svg fill="#000000" height="800px" width="800px" version="1.1" id="Layer_1" xmlns="http://www.w3.org/2000/svg" xmlns:xlink="http://www.w3.org/1999/xlink" 
	 viewBox="0 0 512 512" xml:space="preserve">
<g>
	<g>
		<g>
			<path d="M288,341.333c5.888,0,10.667-4.779,10.667-10.667V160c0-4.309-2.603-8.213-6.592-9.856
				c-3.989-1.643-8.576-0.725-11.627,2.304l-42.667,42.667c-4.16,4.16-4.16,10.923,0,15.083c4.16,4.16,10.923,4.16,15.083,0
				l24.448-24.448v144.917C277.333,336.555,282.112,341.333,288,341.333z"/>
			<path d="M298.667,394.667c0-5.888-4.779-10.667-10.667-10.667H74.667c-29.397,0-53.333-23.915-53.333-53.333v-224H384v138.667
				c0,5.888,4.779,10.667,10.667,10.667s10.667-4.779,10.667-10.667V96c0-41.173-33.493-74.667-74.667-74.667H320v32
				C320,59.221,315.221,64,309.333,64s-10.667-4.779-10.667-10.667V10.667C298.667,4.779,293.888,0,288,0
				s-10.667,4.779-10.667,10.667v10.667h-128v32c0,5.888-4.779,10.667-10.667,10.667S128,59.221,128,53.333V10.667
				C128,4.779,123.221,0,117.333,0s-10.667,4.779-10.667,10.667v10.667h-32C33.493,21.333,0,54.827,0,96v234.667
				c0,41.173,33.493,74.667,74.667,74.667H288C293.888,405.333,298.667,400.555,298.667,394.667z"/>
			<path d="M213.333,202.667c0-29.419-23.936-53.333-53.333-53.333s-53.333,23.915-53.333,53.333
				c0,5.888,4.779,10.667,10.667,10.667S128,208.555,128,202.667c0-17.643,14.357-32,32-32s32,14.357,32,32
				c0,17.643-14.357,32-32,32h-21.333c-5.888,0-10.667,4.779-10.667,10.667S132.779,256,138.667,256H160c17.643,0,32,14.357,32,32
				s-14.357,32-32,32s-32-14.357-32-32c0-5.888-4.779-10.667-10.667-10.667s-10.667,4.779-10.667,10.667
				c0,29.419,23.936,53.333,53.333,53.333s53.333-23.915,53.333-53.333c0-17.408-8.405-32.939-21.355-42.667
				C204.928,235.605,213.333,220.075,213.333,202.667z"/>
			<path d="M467.947,444.885l-32.021-7.979l-1.344-5.376c8.32-9.173,14.208-20.885,16.661-33.045
				c5.696-2.944,9.835-8.533,10.667-15.253l2.325-18.56c0.704-5.611-1.024-11.264-4.757-15.552
				c-1.152-1.344-2.475-2.475-3.904-3.435l0.555-11.307l1.963-1.984c5.483-5.824,12.907-18.325,1.152-36.309
				c-5.611-8.555-17.109-18.752-40.192-18.752c-6.784,0-22.123,0-37.013,9.344c-43.904,1.515-49.067,25.195-49.067,43.051
				c0,3.52,0.619,10.133,1.237,15.616c-1.579,1.003-3.029,2.219-4.288,3.648c-3.776,4.288-5.547,10.005-4.843,15.68l2.325,18.539
				c0.875,6.955,5.291,12.715,11.797,15.552c2.411,11.648,7.979,22.912,15.765,31.851l-1.557,6.272l-32.021,7.979
				c-25.941,6.507-44.053,29.717-44.053,56.469c0,5.888,4.779,10.667,10.667,10.667h213.333c5.888,0,10.667-4.8,10.667-10.688
				C512,474.581,493.888,451.371,467.947,444.885z"/>
		</g>
	</g>
</g>
</svg>