<?xml version="1.0" encoding="iso-8859-1"?>
<!-- Uploaded to: SVG Repo, www.svgrepo.com, Generator: SVG Repo Mixer Tools -->
<svg fill="#000000" height="800px" width="800px" version="1.1" id="Layer_1" xmlns="http://www.w3.org/2000/svg" xmlns:xlink="http://www.w3.org/1999/xlink" 
	 viewBox="0 0 512 512" xml:space="preserve">
<g>
	<g>
		<g>
			<path d="M476.467,341.453c-4.651,0.768-7.791,5.171-7.014,9.822c5.905,35.473-1.766,66.065-22.835,90.931
				c-27.554,32.521-77.705,52.727-130.884,52.727H196.267c-43.409,0-93.867-48.461-93.867-110.933v-34.133
				c0-18.893-22.98-25.6-42.667-25.6c-25.515,0-42.667-17.143-42.667-42.667v-8.533H76.8c14.114,0,25.6,11.486,25.6,25.6
				c0,4.71,3.814,8.533,8.533,8.533s8.533-3.823,8.533-8.533c0-14.114,11.486-25.6,25.6-25.6H204.8v8.533
				c0,24.721-17.946,42.667-42.667,42.667c-19.686,0-42.667,6.707-42.667,25.6V384c0,14.251,9.967,32.828,24.243,45.167
				c13.457,11.631,29.534,16.768,45.423,14.447l50.859-8.482c32.691-4.079,57.967-17.911,73.088-39.987
				c16.418-23.953,20.395-56.474,11.844-94.182c31.701-21.658,50.543-55.287,50.543-87.629c0-5.897-0.324-12.092-0.87-18.381
				c8.687,5.956,20.113,9.847,35.004,9.847c53.999,0,68.267-61.397,68.267-93.867c0-4.71-3.814-8.533-8.533-8.533
				s-8.533,3.823-8.533,8.533c0,0.768-0.58,76.8-51.2,76.8c-24.627,0-35.004-13.705-39.398-25.668
				c-1.041-5.879-2.15-11.563-3.268-16.896v-0.128c0-1.229-0.29-2.381-0.768-3.439c-2.057-9.557-4.053-17.732-5.555-23.578
				c59.102-8.166,88.866-51.524,90.223-53.555c2.62-3.925,1.562-9.225-2.364-11.836c-3.942-2.628-9.233-1.553-11.836,2.364
				c-0.316,0.478-32.324,47.403-95.3,47.403c-4.719,0-8.533,3.823-8.533,8.533s3.814,8.533,8.533,8.533
				c0.683,0,1.297-0.077,1.971-0.094c1.587,6.05,4.113,16.154,6.656,28.169c0.239,5.461,1.323,11.896,3.567,18.483
				c2.731,15.71,4.873,32.623,4.873,47.309c0,44.399-45.56,93.867-110.933,93.867c-4.719,0-8.533,3.823-8.533,8.533
				s3.814,8.533,8.533,8.533c23.236,0,44.1-5.333,61.978-14.191c5.956,30.609,2.466,56.576-10.436,75.418
				c-12.467,18.193-33.033,29.193-61.474,32.759l-51.038,8.499c-13.722,2.031-24.798-4.591-31.625-10.496
				c-11.477-9.924-18.338-24.192-18.338-32.256v-34.133c0-5.163,15.164-8.508,25.6-8.533c34.048,0,59.733-25.677,59.733-59.733
				v-17.067c0-4.71-3.814-8.533-8.533-8.533h-68.267c-13.943,0-26.342,6.724-34.133,17.092C103.142,262.724,90.743,256,76.8,256
				H8.533C3.814,256,0,259.823,0,264.533V281.6c0,34.611,25.122,59.733,59.733,59.733c10.189,0,25.6,3.405,25.6,8.533V384
				c0,59.196,48.461,128,110.933,128h119.467c58.061,0,113.203-22.519,143.898-58.76c24.124-28.467,33.331-64.691,26.65-104.781
				C485.504,343.808,481.126,340.659,476.467,341.453z"/>
			<path d="M412.151,151.782c-0.828,0.794-2.219,1.707-2.458,1.818c-0.512-0.077-1.715-0.87-2.406-1.57
				c-3.183-3.413-8.533-3.618-11.989-0.452c-3.473,3.183-3.703,8.576-0.521,12.049c1.075,1.178,6.844,7.04,14.822,7.04
				c7.424,0,13.431-5.641,14.566-6.767c3.311-3.311,3.311-8.644,0.026-11.981C420.915,148.582,415.522,148.531,412.151,151.782z"/>
			<path d="M512,247.467c0-21.973-15.275-38.11-23.817-45.423c1.826-4.309,3.814-8.414,5.999-12.544
				C502.537,173.705,512,155.785,512,110.933c0-51.49-9.096-65.161-36.028-74.991C466.005,10.479,446.43,0,409.6,0
				c-79.275,0-119.467,34.458-119.467,102.4c0,18.202,2.313,35.55,4.557,52.326c6.34,47.531,11.349,85.077-35.277,120.047
				c-3.772,2.824-4.54,8.175-1.707,11.947c1.681,2.236,4.233,3.413,6.835,3.413c1.783,0,3.576-0.555,5.111-1.707
				c54.63-40.969,48.469-87.108,41.958-135.953c-2.167-16.23-4.412-32.998-4.412-50.074c0-58.214,32.538-85.333,102.4-85.333
				c31.556,0,44.587,7.142,51.644,28.297c0.836,2.551,2.842,4.548,5.393,5.402c19.43,6.468,28.297,9.429,28.297,60.169
				c0,40.619-8.047,55.859-15.838,70.596c-3.285,6.204-6.673,12.621-9.318,20.574C460.902,228.71,460.8,254.899,460.8,256
				c0,4.71,3.814,8.533,8.533,8.533s8.533-3.823,8.533-8.533c0-0.196,0.077-16.666,4.548-35.866
				c5.939,6.357,12.518,15.957,12.518,27.332c0,5.129-5.137,11.238-10.581,17.707c-7.859,9.335-17.63,20.958-15.727,36.036
				c1.621,12.894,11.128,25.139,29.884,38.537c1.502,1.075,3.234,1.587,4.949,1.587c2.671,0,5.282-1.246,6.946-3.576
				c2.748-3.831,1.852-9.165-1.98-11.904c-14.208-10.146-21.905-19.166-22.869-26.778c-0.964-7.672,5.265-15.078,11.853-22.912
				C504.585,267.631,512,258.816,512,247.467z"/>
			<path d="M377.993,301.141c-2.483,2.441-7.714,6.059-11.059,6.059s-8.568-3.61-11.051-6.05c-3.345-3.311-8.721-3.311-12.049,0.017
				c-3.337,3.337-3.337,8.73,0,12.066c1.126,1.126,11.366,11.034,23.1,11.034s21.973-9.907,23.1-11.034
				c3.328-3.319,3.328-8.695,0.009-12.032C386.748,297.873,381.355,297.839,377.993,301.141z"/>
			<path d="M446.259,301.141c-2.483,2.441-7.714,6.059-11.059,6.059c-3.345,0-8.567-3.61-11.051-6.05
				c-3.345-3.311-8.721-3.311-12.049,0.017c-3.337,3.337-3.337,8.73,0,12.066c1.126,1.126,11.366,11.034,23.1,11.034
				s21.973-9.907,23.1-11.034c3.328-3.319,3.328-8.695,0.009-12.032C455.014,297.873,449.613,297.839,446.259,301.141z"/>
		</g>
	</g>
</g>
</svg>